#!OML:ASF X:\für Bonn\!DataBase\2005_08_10_Bjorn_Final\c3d\bjorn.ASF
:FULLY-SPECIFIED
:DEGREES
109
root -0.0364652 12.3387 5.00876 -173.923 -3.13117 177.634
lowerback 41.9734 1.28199 5.93216
upperback 13.3477 -1.16154 -0.200597
thorax -4.97688 -2.37773 -2.63517
lowerneck -22.6765 -0.44264 2.49724
upperneck -5.97963 -2.72182 -0.818472
head 1.86148 -2.10389 -0.960681
rclavicle 3.97569e-015 -3.18055e-015
rhumerus 77.038 -7.50945 -39.308
rradius 19.7968
rwrist 17.6785
rhand -12.5221 6.02639
rfingers 7.12502
rthumb 13.5538 -23.5125
lclavicle 3.97569e-015 -3.18055e-015
lhumerus 89.4509 -0.266896 68.2167
lradius 6.52613
lwrist -54.0762
lhand -23.8525 -11.2288
lfingers 7.12502
lthumb 2.61981 18.7348
rfemur -78.6767 -18.1715 14.7742
rtibia 117.674
rfoot -34.0803 18.6213
rtoes -29.1762
lfemur -77.3305 4.10848 -24.0265
ltibia 118.942
lfoot -29.6948 -5.98648
ltoes -25.6026
110
root -0.0406271 12.5237 5.01266 -173.691 -3.07318 177.541
lowerback 41.3037 1.33354 5.76611
upperback 13.4038 -1.14477 -0.222092
thorax -4.72718 -2.345 -2.60211
lowerneck -23.1459 -0.384921 2.54615
upperneck -5.8902 -2.70321 -0.928391
head 1.97235 -2.11394 -1.01571
rclavicle 1.27222e-014 7.55382e-015
rhumerus 77.1798 -7.71081 -39.0661
rradius 19.9314
rwrist 17.4221
rhand -12.333 5.91309
rfingers 7.12502
rthumb 13.7361 -23.6135
lclavicle 1.27222e-014 7.55382e-015
lhumerus 89.7023 -0.122324 68.1402
lradius 6.7562
lwrist -53.8701
lhand -23.5341 -10.9096
lfingers 7.12502
lthumb 2.92726 19.05
rfemur -77.5874 -17.3272 14.6669
rtibia 115.948
rfoot -34.2499 17.759
rtoes -28.9562
lfemur -76.3664 3.75665 -24.0543
ltibia 117.262
lfoot -29.577 -5.80448
ltoes -25.3241
111
root -0.0442861 12.7088 5.01404 -173.462 -3.02887 177.462
lowerback 40.55 1.39109 5.60198
upperback 13.4965 -1.12781 -0.222664
thorax -4.40676 -2.31363 -2.55113
lowerneck -23.6807 -0.317771 2.59769
upperneck -5.75428 -2.67391 -1.06063
head 2.11147 -2.11924 -1.08034
rclavicle 6.75868e-015 -1.59028e-015
rhumerus 77.3558 -7.92659 -38.8209
rradius 20.0554
rwrist 17.1821
rhand -12.4503 5.78188
rfingers 7.12502
rthumb 13.623 -23.7524
lclavicle 6.75868e-015 -1.59028e-015
lhumerus 89.9986 0.0607047 68.082
lradius 7.02253
lwrist -53.841
lhand -23.249 -10.5212
lfingers 7.12502
lthumb 3.20268 19.4345
rfemur -76.4896 -16.566 14.5923
rtibia 114.193
rfoot -34.4299 16.9333
rtoes -28.7901
lfemur -75.3903 3.42521 -24.0833
ltibia 115.559
lfoot -29.4831 -5.56988
ltoes -25.1265
112
root -0.0474146 12.8969 5.01183 -173.234 -2.98339 177.384
lowerback 39.7642 1.43399 5.43648
upperback 13.5277 -1.09843 -0.235678
thorax -4.13963 -2.26818 -2.51551
lowerneck -23.9822 -0.299042 2.59837
upperneck -5.6112 -2.66577 -1.12837
head 2.21407 -2.12077 -1.11152
rclavicle 1.98785e-014 1.15295e-014
rhumerus 77.5221 -8.07656 -38.9289
rradius 20.1069
rwrist 17.3046
rhand -12.9435 5.74674
rfingers 7.12502
rthumb 13.1476 -23.8188
lclavicle 1.98785e-014 1.15295e-014
lhumerus 90.1793 0.181084 68.0156
lradius 7.32007
lwrist -53.9719
lhand -23.2703 -9.95856
lfingers 7.12502
lthumb 3.1821 19.9974
rfemur -75.3674 -15.8266 14.5201
rtibia 112.399
rfoot -34.5864 16.1769
rtoes -28.3252
lfemur -74.3791 3.10301 -24.1151
ltibia 113.821
lfoot -29.4017 -5.21741
ltoes -25.146
113
root -0.0507522 13.0864 5.00763 -173.054 -2.92802 177.309
lowerback 39.0084 1.47787 5.26389
upperback 13.5095 -1.04975 -0.258416
thorax -3.93013 -2.21033 -2.49004
lowerneck -24.1808 -0.279379 2.67538
upperneck -5.37153 -2.64684 -1.21552
head 2.33348 -2.10632 -1.16153
rclavicle 8.34896e-015 -4.77083e-015
rhumerus 77.5792 -8.17514 -38.9914
rradius 20.1864
rwrist 17.366
rhand -13.5006 5.71804
rfingers 7.12502
rthumb 12.6106 -23.8813
lclavicle 8.34896e-015 -4.77083e-015
lhumerus 90.2991 0.235596 67.9369
lradius 7.59142
lwrist -54.1384
lhand -23.7598 -9.26447
lfingers 7.12502
lthumb 2.70934 20.6981
rfemur -74.1936 -15.1467 14.4639
rtibia 110.572
rfoot -34.754 15.3489
rtoes -28.1178
lfemur -73.2968 2.81281 -24.1645
ltibia 112.051
lfoot -29.3664 -4.75325
ltoes -25.4653
114
root -0.0540086 13.2794 5.001 -172.906 -2.87442 177.234
lowerback 38.2389 1.53642 5.0689
upperback 13.5109 -0.996405 -0.247997
thorax -3.68817 -2.15521 -2.41953
lowerneck -24.4424 -0.259633 2.7214
upperneck -5.09906 -2.62158 -1.3426
head 2.47629 -2.09069 -1.2211
rclavicle -7.55382e-015 1.51076e-014
rhumerus 77.7802 -8.31322 -39.3544
rradius 20.1821
rwrist 17.8913
rhand -13.8679 5.76679
rfingers 7.12502
rthumb 12.2565 -23.8541
lclavicle -7.55382e-015 1.51076e-014
lhumerus 90.4509 0.337115 67.8999
lradius 7.91789
lwrist -53.882
lhand -24.0655 -8.69403
lfingers 7.12502
lthumb 2.41409 21.2721
rfemur -72.9665 -14.4982 14.3933
rtibia 108.701
rfoot -34.8732 14.6033
rtoes -27.6375
lfemur -72.1468 2.53449 -24.2117
ltibia 110.231
lfoot -29.3067 -4.33492
ltoes -25.6021
115
root -0.0572577 13.4782 4.99186 -172.805 -2.8132 177.182
lowerback 37.5364 1.56327 4.92117
upperback 13.4311 -0.935706 -0.2739
thorax -3.55147 -2.08833 -2.40877
lowerneck -24.448 -0.274424 2.75609
upperneck -4.88781 -2.61724 -1.41291
head 2.55282 -2.07621 -1.25465
rclavicle -9.54166e-015 9.54166e-015
rhumerus 78.0256 -8.41012 -40.3239
rradius 20.0746
rwrist 19.1432
rhand -13.9458 6.01387
rfingers 7.12502
rthumb 12.1813 -23.6115
lclavicle -9.54166e-015 9.54166e-015
lhumerus 90.4924 0.368194 67.8213
lradius 8.27789
lwrist -53.2112
lhand -23.95 -8.4189
lfingers 7.12502
lthumb 2.52567 21.5459
rfemur -71.6597 -13.8761 14.3497
rtibia 106.779
rfoot -34.9986 13.8258
rtoes -27.3381
lfemur -70.8941 2.22995 -24.2187
ltibia 108.344
lfoot -29.2555 -3.85703
ltoes -25.7753
116
root -0.060777 13.6814 4.98127 -172.791 -2.75908 177.13
lowerback 36.8966 1.60268 4.77916
upperback 13.3935 -0.879042 -0.283131
thorax -3.38347 -2.03255 -2.38055
lowerneck -25.1283 -0.267355 2.76274
upperneck -3.98913 -2.61085 -1.58997
head 2.53086 -2.07182 -1.19851
rclavicle -1.19271e-015 5.1684e-015
rhumerus 78.1988 -8.55367 -40.757
rradius 20.0569
rwrist 19.8982
rhand -13.954 6.21581
rfingers 7.12502
rthumb 12.1735 -23.41
lclavicle -1.19271e-015 5.1684e-015
lhumerus 90.6423 0.429716 67.7594
lradius 8.52569
lwrist -52.5531
lhand -23.7281 -8.27037
lfingers 7.12502
lthumb 2.73993 21.6918
rfemur -70.2218 -13.3021 14.2905
rtibia 104.805
rfoot -35.0965 13.0768
rtoes -26.9883
lfemur -69.5004 1.89306 -24.2224
ltibia 106.393
lfoot -29.2003 -3.30947
ltoes -26.151
117
root -0.0629776 13.8893 4.96858 -172.819 -2.70509 177.078
lowerback 36.2058 1.64365 4.64019
upperback 13.4418 -0.826408 -0.291718
thorax -3.24115 -1.97856 -2.3609
lowerneck -25.295 -0.264234 2.82501
upperneck -3.72593 -2.60301 -1.71322
head 2.63289 -2.06405 -1.25091
rclavicle -7.95139e-016 -7.15625e-015
rhumerus 78.2941 -8.6684 -40.7438
rradius 20.0474
rwrist 20.1723
rhand -13.926 6.44032
rfingers 7.12502
rthumb 12.2005 -23.1839
lclavicle -7.95139e-016 -7.15625e-015
lhumerus 90.835 0.540345 67.6933
lradius 8.62843
lwrist -51.9484
lhand -23.5914 -8.1779
lfingers 7.12502
lthumb 2.872 21.7825
rfemur -68.7173 -12.7553 14.2343
rtibia 102.785
rfoot -35.1901 12.3344
rtoes -26.7003
lfemur -68.0226 1.5809 -24.2148
ltibia 104.375
lfoot -29.1148 -2.85441
ltoes -26.2752
118
root -0.0665413 14.1025 4.95348 -172.782 -2.66249 177.061
lowerback 35.54 1.65939 4.54965
upperback 13.3831 -0.769396 -0.311148
thorax -3.0811 -1.91682 -2.3687
lowerneck -25.4601 -0.266956 2.87112
upperneck -3.47968 -2.60148 -1.80322
head 2.7299 -2.05872 -1.29075
rclavicle 4.37326e-015 7.95139e-016
rhumerus 78.3261 -8.77318 -40.4729
rradius 20.0756
rwrist 20.0935
rhand -13.8634 6.62219
rfingers 7.12502
rthumb 12.2608 -22.9984
lclavicle 4.37326e-015 7.95139e-016
lhumerus 91.074 0.651434 67.6179
lradius 8.64728
lwrist -51.3181
lhand -23.4941 -8.09208
lfingers 7.12502
lthumb 2.96592 21.867
rfemur -67.2868 -12.2429 14.2497
rtibia 100.725
rfoot -35.2383 11.4893
rtoes -26.6156
lfemur -66.6031 1.28908 -24.1763
ltibia 102.3
lfoot -28.9893 -2.46211
ltoes -26.2509
119
root -0.0676773 14.317 4.93648 -172.678 -2.62149 177.043
lowerback 34.8288 1.67477 4.42217
upperback 13.3004 -0.711357 -0.31404
thorax -2.92763 -1.85214 -2.33964
lowerneck -25.6672 -0.26207 2.86365
upperneck -3.21455 -2.57793 -1.87641
head 2.83969 -2.04219 -1.31568
rclavicle -7.95139e-015 -1.27222e-014
rhumerus 78.4328 -8.85912 -40.3989
rradius 20.0757
rwrist 20.1883
rhand -13.7416 6.87598
rfingers 7.12502
rthumb 12.3782 -22.7376
lclavicle -7.95139e-015 -1.27222e-014
lhumerus 91.3126 0.794671 67.5571
lradius 8.6401
lwrist -50.8778
lhand -23.3818 -7.96636
lfingers 7.12502
lthumb 3.0744 21.9912
rfemur -65.9283 -11.7406 14.2675
rtibia 98.6306
rfoot -35.1705 10.8396
rtoes -26.0989
lfemur -65.2455 1.00008 -24.1227
ltibia 100.178
lfoot -28.827 -2.18773
ltoes -25.9948
120
root -0.0699605 14.5353 4.91738 -172.643 -2.59854 177.042
lowerback 34.1381 1.68195 4.33959
upperback 13.2625 -0.669344 -0.31085
thorax -2.72699 -1.80035 -2.32249
lowerneck -25.8793 -0.259415 2.86062
upperneck -2.97774 -2.5634 -1.94544
head 2.94117 -2.03242 -1.3407
rclavicle 1.11319e-014 -3.97569e-016
rhumerus 78.6752 -8.98525 -40.7207
rradius 20.0191
rwrist 20.6489
rhand -13.5273 7.15248
rfingers 7.12502
rthumb 12.5848 -22.4485
lclavicle 1.11319e-014 -3.97569e-016
lhumerus 91.5882 0.955445 67.4982
lradius 8.63288
lwrist -50.6038
lhand -23.2606 -7.86048
lfingers 7.12502
lthumb 3.19144 22.0954
rfemur -64.4529 -11.2419 14.2737
rtibia 96.4881
rfoot -35.0721 10.2436
rtoes -25.4305
lfemur -63.7705 0.730532 -24.0516
ltibia 97.9828
lfoot -28.6595 -1.93191
ltoes -25.7052
